<?xml version="1.0" ?><svg viewBox="0 0 64 64" xmlns="http://www.w3.org/2000/svg"><title/><g data-name="Layer 3" id="Layer_3"><path d="M26,35a1,1,0,0,0-1,1v3a1,1,0,0,0,2,0V36A1,1,0,0,0,26,35Z"/><path d="M38,35a1,1,0,0,0-1,1v3a1,1,0,0,0,2,0V36A1,1,0,0,0,38,35Z"/><path d="M46.86,18.33c1.14-.32,2.52-.89,2.46-2.17A2,2,0,0,0,48,14.45a10.07,10.07,0,0,0-6.8-.33,4.65,4.65,0,0,0,1.24-4,1.55,1.55,0,0,0-.55-1,1.71,1.71,0,0,0-1-.25,11.29,11.29,0,0,0-7.41,2.51,6.89,6.89,0,0,0,.35-2.94,2.36,2.36,0,0,0-1.88-2A3.09,3.09,0,0,0,30,7a14.61,14.61,0,0,0-4.7,5.06,5,5,0,0,0-.51-2.47,1.21,1.21,0,0,0-.63-.68A1.27,1.27,0,0,0,23,9.34a8.62,8.62,0,0,0-2.78,6.21A2.55,2.55,0,0,0,19,13.91a1.72,1.72,0,0,0-2,.37,2.59,2.59,0,0,0-.48,1.16,20.15,20.15,0,0,0-.41,6.29c-.67-.7-1.59-1.46-2.53-.94a1.83,1.83,0,0,0-.8,1.91,15.14,15.14,0,0,0,2,5.61,1,1,0,0,0-1.46.3,2.46,2.46,0,0,0,.17,2,18.55,18.55,0,0,0,1.11,2.11,1.77,1.77,0,0,0-.07.46V39a4.51,4.51,0,0,0,3.88,4.44A10.5,10.5,0,0,0,23.66,49,30.56,30.56,0,0,0,27,50.27c.49.16,1,.3,1.52.42v2a1.14,1.14,0,0,1-1.06,1.13l-7,.47a4.27,4.27,0,0,0-4,4.25v4h31v-4a4.27,4.27,0,0,0-4-4.25l-7-.47a1.14,1.14,0,0,1-1.06-1.13v-2c.53-.12,1-.26,1.52-.42A30.56,30.56,0,0,0,40.34,49a10.5,10.5,0,0,0,5.28-5.53A4.51,4.51,0,0,0,49.5,39v-5.8s0,0,0-.08a10.73,10.73,0,0,0,4.42-1.77,1.24,1.24,0,0,0,.51-.53,1.14,1.14,0,0,0,0-.66c-.44-1.92-2.35-3.07-4.09-4a2.78,2.78,0,0,0,2.85-3,4,4,0,0,0-.92-1.91A7.9,7.9,0,0,0,46.86,18.33ZM36.5,54.8l1.42.09c-.3.83-1.53,3.26-5.92,3.33s-5.64-2.48-5.92-3.32l1.42-.1a2.15,2.15,0,0,0,2-2.13V50.89l.63.07.45,0a15,15,0,0,0,2.84,0l.44,0,.64-.07v1.78A2.15,2.15,0,0,0,36.5,54.8Zm8.73-12.33-.31,0-.12.3a9.53,9.53,0,0,1-4.88,5.27,30.78,30.78,0,0,1-3.22,1.26,15.23,15.23,0,0,1-1.8.48,14.9,14.9,0,0,1-5.8,0,16.82,16.82,0,0,1-1.8-.47,33.18,33.18,0,0,1-3.22-1.27,9.53,9.53,0,0,1-4.88-5.27l-.12-.3-.31,0A3.51,3.51,0,0,1,15.5,39V34c.46.52.91.86,1.28.72l1.39,3.29h1v-.37L19,34.74a3.41,3.41,0,0,0,.72.5.78.78,0,0,0,.85,0,.82.82,0,0,0,.2-.59,10.85,10.85,0,0,0-.52-4.08c.3.59,1.06,1.25,1.47.73a.91.91,0,0,0,.14-.63V28.87l.53.06a38.88,38.88,0,0,0,3.15,2.72c.46.35,1.12.69,1.56.32a1.17,1.17,0,0,0,.3-.62,3.5,3.5,0,0,0-.06-1.7,14.33,14.33,0,0,0,6.68,4.51.56.56,0,0,0,.72-.56,6.07,6.07,0,0,0-.91-3.07,11,11,0,0,1,3,2.61,4.41,4.41,0,0,0,3.49,1.66,6.27,6.27,0,0,0-.31-3.18c1.42,1.37,3,2.81,4.92,3.15l-.11,2.91v.37h1l1.23-2.92,1.44-.44V39A3.51,3.51,0,0,1,45.23,42.47Zm3.27-8.79c-.3-.23-.64-.4-.62-.43l.62,0Z"/></g></svg>