<?xml version="1.0" ?><svg viewBox="0 0 64 64" xmlns="http://www.w3.org/2000/svg"><title/><g data-name="Layer 3" id="Layer_3"><path d="M26,35a1,1,0,0,0-1,1v3a1,1,0,0,0,2,0V36A1,1,0,0,0,26,35Z"/><path d="M38,40a1,1,0,0,0,1-1V36a1,1,0,0,0-2,0v3A1,1,0,0,0,38,40Z"/><path d="M43.93,12.6a11.88,11.88,0,0,0-2.88-.47L41,12C31-2,9,16,9,26l4-2a26.63,26.63,0,0,1-4,8,30.64,30.64,0,0,0,5.6.65,1.62,1.62,0,0,0-.1.54V39a4.53,4.53,0,0,0,3.87,4.45,10.68,10.68,0,0,0,4.38,5,11.52,11.52,0,0,0,3.82,1.64c.14.05.27.11.41.15a13.66,13.66,0,0,0,1.52.41v2a1.14,1.14,0,0,1-1.06,1.13l-7,.47a4.27,4.27,0,0,0-4,4.24v4h31v-4a4.27,4.27,0,0,0-4-4.24l-7-.47a1.14,1.14,0,0,1-1.06-1.13v-2A13.66,13.66,0,0,0,37,50.27l.42-.15a11.5,11.5,0,0,0,4-1.77,10.55,10.55,0,0,0,4.19-4.91A4.53,4.53,0,0,0,49.5,39v-5.8a1.69,1.69,0,0,0-.26-.89A3.55,3.55,0,0,1,51,34C52,36,56.85,16.2,43.93,12.6ZM48.5,33.37a3.13,3.13,0,0,1-.39-.8.7.7,0,0,1,.39.62Zm-14,15.12A2.46,2.46,0,0,1,32,47a2.46,2.46,0,0,1-2.5,1.46c-1.73-.1-9.58,1.21-9.73-11.66l.55-4.4A47.51,47.51,0,0,0,28,31l-3,2a18.19,18.19,0,0,0,13.73-6.66c.16.41.27.66.27.66a14.47,14.47,0,0,0,4.72,5l.51,4.6C44.18,49.72,36.24,48.39,34.5,48.49ZM15.5,39v-5.8a.67.67,0,0,1,.24-.51c.63,0,1.24,0,1.85,0l.23,1.65a23.88,23.88,0,0,0,.69,8.15A3.51,3.51,0,0,1,15.5,39Zm21,15.81,1.43.1c-.3.82-1.53,3.25-5.92,3.32s-5.64-2.47-5.92-3.32l1.43-.1a2.14,2.14,0,0,0,2-2.13V50.88a15.73,15.73,0,0,0,5,0v1.79A2.14,2.14,0,0,0,36.49,54.8Zm9-12.37a24.55,24.55,0,0,0,.66-8.59l.07-.58a12.89,12.89,0,0,0,2.28.63V39A3.51,3.51,0,0,1,45.49,42.43Z"/><path d="M29.91,43.82l1.61-1.12A2.63,2.63,0,0,0,29.91,43.82Z"/><path d="M29.1,43.82l1.61-1.12A2.66,2.66,0,0,0,29.1,43.82Z"/><path d="M28.29,43.82l1.62-1.12A2.67,2.67,0,0,0,28.29,43.82Z"/><path d="M27.49,43.82,29.1,42.7A2.63,2.63,0,0,0,27.49,43.82Z"/><path d="M32.39,42.7,34,43.82A2.67,2.67,0,0,0,32.39,42.7Z"/><path d="M33.2,42.7l1.61,1.12A2.63,2.63,0,0,0,33.2,42.7Z"/><path d="M34,42.7l1.61,1.12A2.66,2.66,0,0,0,34,42.7Z"/><path d="M34.81,42.7l1.62,1.12A2.67,2.67,0,0,0,34.81,42.7Z"/></g></svg>