<?xml version="1.0" ?><svg viewBox="0 0 64 64" xmlns="http://www.w3.org/2000/svg"><title/><g data-name="Layer 3" id="Layer_3"><path d="M26,35a1,1,0,0,0-1,1v3a1,1,0,0,0,2,0V36A1,1,0,0,0,26,35Z"/><path d="M38,35a1,1,0,0,0-1,1v3a1,1,0,0,0,2,0V36A1,1,0,0,0,38,35Z"/><path d="M32,9C17,5,12,20,12,25c0,2.51,1.27,5.54,2.53,7.92a1.24,1.24,0,0,0,0,.27V39a4.53,4.53,0,0,0,3.87,4.45A10.57,10.57,0,0,0,23.66,49c.55.26,1.11.49,1.68.71s1.08.42,1.64.6a13.66,13.66,0,0,0,1.52.41v2a1.14,1.14,0,0,1-1.06,1.13l-7,.47a4.27,4.27,0,0,0-4,4.24v4h31v-4a4.27,4.27,0,0,0-4-4.24l-7-.47a1.14,1.14,0,0,1-1.06-1.13v-2A13.66,13.66,0,0,0,37,50.27,30.56,30.56,0,0,0,40.34,49a10.57,10.57,0,0,0,5.29-5.52A4.53,4.53,0,0,0,49.5,39v-5.8a1.24,1.24,0,0,0,0-.27C50.73,30.54,52,27.51,52,25,52,20,49,6,32,9Zm4.16,39.71c-4,1.49-3.16-1.88-3.16-1.88l-.3.05a3.66,3.66,0,0,1-1.4,0l-.3-.05s.82,3.37-3.16,1.88a.6.6,0,0,1-.37-.67l.3-2.23a2.11,2.11,0,0,1,1.52-1.67l.88-.24a6.89,6.89,0,0,1,3.66,0l.88.24a2.11,2.11,0,0,1,1.52,1.67l.3,2.23A.6.6,0,0,1,36.16,48.71Zm.33,6.09,1.43.1c-.3.82-1.53,3.25-5.92,3.32s-5.64-2.47-5.92-3.32l1.43-.1a2.14,2.14,0,0,0,2-2.13V50.88a15.73,15.73,0,0,0,5,0v1.79A2.14,2.14,0,0,0,36.49,54.8ZM48.5,39a3.51,3.51,0,0,1-3.26,3.48l-.32,0-.11.29a9.58,9.58,0,0,1-4.89,5.27c-.5.23-1,.45-1.55.66l-.81-4a2.12,2.12,0,0,0-1.7-1.6L32,42.5l-3.86.66a2.12,2.12,0,0,0-1.7,1.6l-.81,4c-.53-.21-1-.42-1.55-.65a9.58,9.58,0,0,1-4.89-5.27l-.11-.29-.32,0A3.51,3.51,0,0,1,15.5,39V34.65C16.34,36.07,17,37,17,37V34c1,6,3,9,3,9l1-10,1,4,1-8,1,4a21,21,0,0,1,.88-5.89L32,28l7.12-.89A21,21,0,0,1,40,33l1-4,1,8,1-4,1,10s2-3,3-9v3s.66-.93,1.5-2.35Z"/></g></svg>