<?xml version="1.0" ?><svg viewBox="0 0 64 64" xmlns="http://www.w3.org/2000/svg"><title/><g data-name="Layer 3" id="Layer_3"><path d="M47.81,31.5h-.12a17.5,17.5,0,0,0,1-3.23v0c3.17-18.35-5.82-16.37-5.82-16.37h0A13.64,13.64,0,0,0,32,7.11c-6.88.36-12,2.12-15.88.89a9.18,9.18,0,0,0,2.64,2.38s-4.94,2.12-9.35-.18c0,0,1.77,4,4.33,5.38,0,0-3.09.09-4.77-1,0,0,1.94,4.68,5.29,6.18a4.08,4.08,0,0,1-3.26,0,7.92,7.92,0,0,0,3.18,3.62,2.5,2.5,0,0,1-1.94,0,17.07,17.07,0,0,1,3.68,6.12h0c.11.34.25.66.38,1h-.12a1.69,1.69,0,0,0-1.69,1.69V39a4.53,4.53,0,0,0,3.87,4.45A10.79,10.79,0,0,0,20,46.09c1.57,2.42,4.19,4.31,8.52,4.82v1.76a1.14,1.14,0,0,1-1.06,1.13l-7,.47a4.27,4.27,0,0,0-4,4.24v4h31v-4a4.27,4.27,0,0,0-4-4.24l-7-.47a1.14,1.14,0,0,1-1.06-1.13V50.91c4.33-.51,7-2.4,8.52-4.81a11,11,0,0,0,1.61-2.66A4.53,4.53,0,0,0,49.5,39v-5.8A1.69,1.69,0,0,0,47.81,31.5ZM35.15,48.88l-.65,0a2.4,2.4,0,0,1-.47,0,4.5,4.5,0,0,1-2-1.78,4.5,4.5,0,0,1-2,1.78,2.4,2.4,0,0,1-.47,0l-.65,0c-1.71-.65-1.32-3-1.14-3.88a5.51,5.51,0,0,0-1.95,3.18c-3.44-1.37-7.63-5.38-6.4-17.39l1.48-4.92A73.18,73.18,0,0,0,32,26.71a73.18,73.18,0,0,0,11.16-.84l1.48,4.92c1.23,12-3,16-6.4,17.39a5.51,5.51,0,0,0-2-3.18C36.47,45.88,36.86,48.23,35.15,48.88ZM15.5,39v-5.8a.69.69,0,0,1,.69-.69h.5l1.09,3a23.24,23.24,0,0,0,.6,6.94A3.51,3.51,0,0,1,15.5,39Zm21,15.81,1.43.1c-.3.82-1.53,3.25-5.92,3.32s-5.64-2.47-5.92-3.32l1.43-.1a2.14,2.14,0,0,0,2-2.13V51c.49,0,1,0,1.55,0,.32,0,.63,0,.95,0s.63,0,1,0c.54,0,1.06,0,1.55,0v1.67A2.14,2.14,0,0,0,36.49,54.8ZM48.5,39a3.51,3.51,0,0,1-2.88,3.42,23.24,23.24,0,0,0,.6-6.94l1.09-3h.5a.69.69,0,0,1,.69.69Z"/><path d="M26,35a1,1,0,0,0-1,1v3a1,1,0,0,0,2,0V36A1,1,0,0,0,26,35Z"/><path d="M38,40a1,1,0,0,0,1-1V36a1,1,0,0,0-2,0v3A1,1,0,0,0,38,40Z"/></g></svg>