<?xml version="1.0" ?><svg viewBox="0 0 64 64" xmlns="http://www.w3.org/2000/svg"><title/><g data-name="Layer 3" id="Layer_3"><path d="M26,35a1,1,0,0,0-1,1v3a1,1,0,0,0,2,0V36A1,1,0,0,0,26,35Z"/><path d="M38,35a1,1,0,0,0-1,1v3a1,1,0,0,0,2,0V36A1,1,0,0,0,38,35Z"/><path d="M9,14.62s1.94,4.67,5.29,6.17a4,4,0,0,1-3.26,0,7.87,7.87,0,0,0,3.18,3.62,2.5,2.5,0,0,1-1.94,0,17.06,17.06,0,0,1,3.68,6.13h0c.11.33.24.65.38,1h-.12a1.69,1.69,0,0,0-1.69,1.69V39a4.51,4.51,0,0,0,3.88,4.44A10.5,10.5,0,0,0,23.66,49,30.56,30.56,0,0,0,27,50.27c.49.16,1,.3,1.52.42v2a1.14,1.14,0,0,1-1.06,1.13l-7,.47a4.27,4.27,0,0,0-4,4.25v4h31v-4a4.27,4.27,0,0,0-4-4.25l-7-.47a1.14,1.14,0,0,1-1.06-1.13v-2c.53-.12,1-.26,1.52-.42A30.56,30.56,0,0,0,40.34,49a10.5,10.5,0,0,0,5.28-5.53A4.51,4.51,0,0,0,49.5,39v-5.8a1.69,1.69,0,0,0-1.69-1.69h-.12a17.5,17.5,0,0,0,1-3.23v0c3.17-18.35-5.82-16.37-5.82-16.37h0A13.61,13.61,0,0,0,32,7.12c-6.88.35-12,2.12-15.88.88a9.18,9.18,0,0,0,2.64,2.38s-4.94,2.12-9.35-.17c0,0,1.77,4,4.33,5.38C13.74,15.59,10.65,15.68,9,14.62ZM36.5,54.8l1.42.09c-.3.83-1.53,3.26-5.92,3.33s-5.64-2.48-5.92-3.32l1.42-.1a2.15,2.15,0,0,0,2-2.13V50.89l.64.07.43,0a15.18,15.18,0,0,0,2.86,0l.42,0,.65-.07v1.78A2.15,2.15,0,0,0,36.5,54.8Zm12-21.61V39a3.51,3.51,0,0,1-3.27,3.48l-.31,0-.12.3a9.53,9.53,0,0,1-4.88,5.27,30.78,30.78,0,0,1-3.22,1.26,15.23,15.23,0,0,1-1.8.48c-.51.1-1,.17-1.53.22a14.94,14.94,0,0,1-4.27-.22h0a16.63,16.63,0,0,1-1.79-.47,33.18,33.18,0,0,1-3.22-1.27,9.53,9.53,0,0,1-4.88-5.27l-.12-.3-.31,0A3.51,3.51,0,0,1,15.5,39v-5.8a.69.69,0,0,1,.69-.69h.49l2.57,7-.11-3.35L19,32l1.84-6.13A73.18,73.18,0,0,0,32,26.71a73.18,73.18,0,0,0,11.16-.84L45,32l-.14,4.11-.11,3.35,2.57-7h.49A.69.69,0,0,1,48.5,33.19Z"/></g></svg>