<?xml version="1.0" ?><svg style="enable-background:new 0 0 100 100;" version="1.1" viewBox="0 0 100 100" xml:space="preserve" xmlns="http://www.w3.org/2000/svg" xmlns:xlink="http://www.w3.org/1999/xlink"><g id="hairdryer"/><g id="scissor"/><g id="razor"/><g id="razor_blade_1_"><path d="M77,10h-4c-1.1,0-2-0.9-2-2c0-2.2-1.8-4-4-4H33c-2.2,0-4,1.8-4,4c0,1.1-0.9,2-2,2h-4c-2.2,0-4,1.8-4,4v72c0,2.2,1.8,4,4,4   h4c1.1,0,2,0.9,2,2c0,2.2,1.8,4,4,4h34c2.2,0,4-1.8,4-4c0-1.1,0.9-2,2-2h4c2.2,0,4-1.8,4-4V14C81,11.8,79.2,10,77,10z M31,92   c0-2.2-1.8-4-4-4h-4c-1.1,0-2-0.9-2-2V14c0-1.1,0.9-2,2-2h4c2.2,0,4-1.8,4-4c0-1.1,0.9-2,2-2h16v5h-8.7c-2.4,0-4.3,1.9-4.3,4.3v0.4   c0,2.4,1.9,4.3,4.3,4.3h2.4c1.3,0,2.3,1,2.3,2.3c0,0.9-0.5,1.6-1.2,2C42,25.3,41,26.6,41,28s1,2.7,2.8,3.7c0.7,0.4,1.2,1.2,1.2,2   v1.7c0,0.9-0.5,1.7-1.2,2C39,39.8,36,44.6,36,50s3,10.2,7.8,12.5c0.7,0.4,1.2,1.2,1.2,2v1.7c0,0.9-0.5,1.6-1.2,2   C42,69.3,41,70.6,41,72s1,2.7,2.8,3.7c0.7,0.4,1.2,1.2,1.2,2c0,1.3-1,2.3-2.3,2.3h-2.4c-2.4,0-4.3,1.9-4.3,4.3v0.4   c0,2.4,1.9,4.3,4.3,4.3H49v5H33C31.9,94,31,93.1,31,92z M55.3,26.1c1.1,0.6,1.7,1.3,1.7,1.9s-0.6,1.3-1.7,1.9   c-1.4,0.7-2.3,2.2-2.3,3.8v1.7c0,1.6,0.9,3.1,2.3,3.8c4.1,2,6.7,6.2,6.7,10.8s-2.6,8.7-6.7,10.8c-1.4,0.7-2.3,2.2-2.3,3.8v1.7   c0,1.6,0.9,3.1,2.3,3.8c1.1,0.6,1.7,1.3,1.7,1.9s-0.6,1.3-1.7,1.9c-1.4,0.7-2.3,2.2-2.3,3.8c0,2.4,1.9,4.3,4.3,4.3h2.4   c1.3,0,2.3,1,2.3,2.3v0.4c0,1.3-1,2.3-2.3,2.3H40.3C39,87,38,86,38,84.7v-0.4c0-1.3,1-2.3,2.3-2.3h2.4c2.4,0,4.3-1.9,4.3-4.3   c0-1.6-0.9-3.1-2.3-3.8C43.6,73.3,43,72.6,43,72s0.6-1.3,1.7-1.9c1.4-0.7,2.3-2.2,2.3-3.8v-1.7c0-1.6-0.9-3.1-2.3-3.8   c-4.1-2-6.7-6.2-6.7-10.8s2.6-8.7,6.7-10.8c1.4-0.7,2.3-2.2,2.3-3.8v-1.7c0-1.6-0.9-3.1-2.3-3.8C43.6,29.3,43,28.6,43,28   s0.6-1.3,1.7-1.9c1.4-0.7,2.3-2.2,2.3-3.8c0-2.4-1.9-4.3-4.3-4.3h-2.4C39,18,38,17,38,15.7v-0.4c0-1.3,1-2.3,2.3-2.3h19.4   c1.3,0,2.3,1,2.3,2.3v0.4c0,1.3-1,2.3-2.3,2.3h-2.4c-2.4,0-4.3,1.9-4.3,4.3C53,23.9,53.9,25.4,55.3,26.1z M79,86c0,1.1-0.9,2-2,2   h-4c-2.2,0-4,1.8-4,4c0,1.1-0.9,2-2,2H51v-5h8.7c2.4,0,4.3-1.9,4.3-4.3v-0.4c0-2.4-1.9-4.3-4.3-4.3h-2.4C56,80,55,79,55,77.7   c0-0.9,0.5-1.6,1.2-2C58,74.7,59,73.4,59,72s-1-2.7-2.8-3.7c-0.7-0.4-1.2-1.2-1.2-2v-1.7c0-0.9,0.5-1.7,1.2-2   C61,60.2,64,55.4,64,50s-3-10.2-7.8-12.5c-0.7-0.4-1.2-1.2-1.2-2v-1.7c0-0.9,0.5-1.6,1.2-2C58,30.7,59,29.4,59,28s-1-2.7-2.8-3.7   c-0.7-0.4-1.2-1.2-1.2-2c0-1.3,1-2.3,2.3-2.3h2.4c2.4,0,4.3-1.9,4.3-4.3v-0.4c0-2.4-1.9-4.3-4.3-4.3H51V6h16c1.1,0,2,0.9,2,2   c0,2.2,1.8,4,4,4h4c1.1,0,2,0.9,2,2V86z"/></g><g id="comb"/><g id="shaving_machine"/><g id="barbershop"/><g id="barber_pole"/><g id="hairstylist"/><g id="kids"/><g id="mature"/><g id="woman"/><g id="moustache"/><g id="hair_gel"/><g id="shampoo"/><g id="mirror"/><g id="spray"/><g id="apron"/><g id="chair"/><g id="mask"/></svg>